<svg height="2160" viewBox="0 0 3840 2160" width="3840" xmlns="http://www.w3.org/2000/svg"><path d="m0 0h3840v2160h-3840z" fill="#1c1b19"/><g transform="matrix(2.5043865 0 0 2.5043865 1590.2741 844.5068)"><path d="m49.056825 128.24738 37.898363-34.215094-37.898363-34.215086 50.991915 2.604466-2.604474-50.991911 34.215094 37.898363 34.21508-37.898363-2.60446 50.99191 50.99191-2.604469-37.89836 34.215102 37.89836 34.215072-50.99191-2.60446 2.60446 50.9919-34.21508-37.89835-34.215094 37.89835 2.604474-50.99189z" fill="#baa67f" stroke-linejoin="round" stroke-width="1.4981"/><g stroke-width="2.83106"><path d="m131.65651 82.371147a43.578466 35.620237 0 0 0 -35.147807 14.579596 43.578466 35.620237 0 0 0 35.147807 14.580527 43.578466 35.620237 0 0 0 35.1535-14.588086 43.578466 35.620237 0 0 0 -35.1535-14.572037z" fill="#1c1b19"/><circle cx="131.65938" cy="96.951164" fill="#fce8c3" r="11.606529"/><circle cx="131.98729" cy="96.951164" fill="#1c1b19" r="5.164408"/><ellipse cx="129.46658" cy="93.861519" fill="#fce8c3" rx="3.299575" ry="3.089647"/></g><path d="m95.493797 104.16402s33.060983 29.83442 72.376663-.36453" fill="none" stroke="#1c1b19" stroke-width="1.4981"/><path d="m165.87446 11.429752-1.88302 4.010504c-2.41353 15.614655-7.43396 41.31809-11.03076 60.483154 2.42435.939981 4.49648 1.869341 6.12677 3.024292l44.34447-13.875339c-13.35055 9.485873-22.17433 18.803318-33.83307 28.959449.33627 2.83655.40524 5.11115 0 7.262968l39.13212 26.66966 5.53183.28198-37.89869-34.214608 37.89869-34.215238-50.99246 2.604121z" fill="#fce8c3" stroke-width="2.83106"/><path d="m50.479451 59.86148-.866983-.04428.652559.589316 50.402693 25.958965 3.38532-2.10956z" fill="#1c1b19" stroke-width="2.83106"/><g transform="matrix(2.8310554 0 0 2.8310554 -241.63121 -172.17833)"><path d="m119.07702 92.543101s11.67797-10.538279 25.56526.12876" fill="none" stroke="#1c1b19" stroke-width=".529167"/><g fill="#1c1b19"><path d="m143.73577 65.082601.20549-.227606-.0158.310184-8.12946 23.180121-.97809-.201639z"/><path d="m160.72668 81.9623.30624-.01564-.2305.208161-17.8035 9.16936-1.19578-.74515z"/><path d="m119.97549 65.082603-.20549-.227606.0158.310184 8.12946 23.180121.97809-.201639z"/><path d="m102.98457 81.9623-.30624-.01564.2305.208161 17.8035 9.16936 1.19578-.74515z"/></g></g><path d="m199.44355 94.032284c0 18.718096-7.587 35.664146-19.85354 47.930676-12.26653 12.26651-29.21258 19.85352-47.93067 19.85352s-35.664134-7.58701-47.930673-19.85354c-12.26651-12.26654-19.853511-29.21259-19.853511-47.930656 0-18.718086 7.587001-35.664135 19.85354-47.930659 12.26651-12.266527 29.212554-19.853532 47.930644-19.853534 18.71809-.000003 35.66414 7.586999 47.93067 19.853526 12.26654 12.266527 19.85354 29.212576 19.85354 47.930667z" fill="none" stroke-miterlimit="0" stroke-width="2.8314"/><g stroke-linejoin="round" stroke-width=".037962" transform="matrix(2.8310554 0 0 2.8310554 -241.07557 -172.17833)"><g transform="matrix(0 2.0223815 -2.0223815 0 390.29926 -22.243502)"><path d="m57.494489 119.15378-2.225367-3.10406 2.225366-3.10405" fill="#e02c6d"/><path d="m57.494488 112.94567 2.225367 3.10406-2.225366 3.10405" fill="#ff5c8f"/></g><g transform="matrix(1.4300403 1.430039 -1.430039 1.4300403 232.32587 -171.07318)"><path d="m57.494489 119.15378-2.225367-3.10406 2.225366-3.10405" fill="#68a8e4"/><path d="m57.494488 112.94567 2.225367 3.10406-2.225366 3.10405" fill="#2c78bf"/></g><g transform="matrix(2.0223815 0 0 2.0223815 15.38356 -164.60761)"><path d="m57.494489 119.15378-2.225367-3.10406 2.225366-3.10405" fill="#e02c6d"/><path d="m57.494488 112.94567 2.225367 3.10406-2.225366 3.10405" fill="#ff5c8f"/></g><g transform="matrix(1.4300396 -1.4300398 1.4300398 1.4300396 -133.44608 -6.634324)"><path d="m57.494489 119.15378-2.225367-3.10406 2.225366-3.10405" fill="#0aaeb3"/><path d="m57.494488 112.94567 2.225367 3.10406-2.225366 3.10405" fill="#2be4d0"/></g><g transform="matrix(0 -2.0223815 2.0223815 0 -126.98055 210.30808)"><path d="m57.494489 119.15378-2.225367-3.10406 2.225366-3.10405" fill="#baa67f"/><path d="m57.494488 112.94567 2.225367 3.10406-2.225366 3.10405" fill="#fce8c3"/></g><g transform="matrix(-1.4300388 -1.4300405 1.4300405 -1.4300388 30.992576 359.13766)"><path d="m57.494489 119.15378-2.225367-3.10406 2.225366-3.10405" fill="#ff8700"/><path d="m57.494488 112.94567 2.225367 3.10406-2.225366 3.10405" fill="#ff5f00"/></g><g transform="matrix(-2.0223815 0 0 -2.0223815 247.93514 352.67219)"><path d="m57.494489 119.15378-2.225367-3.10406 2.225366-3.10405" fill="#f75341"/><path d="m57.494488 112.94567 2.225367 3.10406-2.225366 3.10405" fill="#ef2f27"/></g><g transform="matrix(-1.4300405 1.4300388 -1.4300388 -1.4300405 396.76473 194.69906)"><path d="m57.494489 119.15378-2.225367-3.10406 2.225366-3.10405" fill="#98bc37"/><path d="m57.494488 112.94567 2.225367 3.10406-2.225366 3.10405" fill="#519f50"/></g><g transform="matrix(0 2.0223815 -2.0223815 0 390.29926 -22.243502)"><path d="m57.494489 119.15378-2.225367-3.10406 2.225366-3.10405" fill="#fed06e"/><path d="m57.494488 112.94567 2.225367 3.10406-2.225366 3.10405" fill="#fbb829"/></g></g></g></svg>